<?xml version="1.0" encoding="utf-8"?>
<!-- Generator: Adobe Illustrator 15.0.0, SVG Export Plug-In . SVG Version: 6.00 Build 0)  -->
<!DOCTYPE svg PUBLIC "-//W3C//DTD SVG 1.1//EN" "http://www.w3.org/Graphics/SVG/1.1/DTD/svg11.dtd">
<svg version="1.1" id="Layer_1" xmlns="http://www.w3.org/2000/svg" xmlns:xlink="http://www.w3.org/1999/xlink" x="0px" y="0px"
	 width="100px" height="100px" viewBox="0 0 100 100" enable-background="new 0 0 100 100" xml:space="preserve">
<rect x="-0.229" fill="#CCCCCC" width="100.229" height="101"/>
<g>
	<path fill="#FFFFFF" d="M11.269,52.992v-4.984h1.006v4.984H11.269z"/>
	<path fill="#FFFFFF" d="M13.22,52.992v-4.984h1.506l0.905,3.4l0.894-3.4h1.509v4.984h-0.935v-3.924l-0.988,3.924h-0.968
		l-0.987-3.924v3.924H13.22z"/>
	<path fill="#FFFFFF" d="M23.527,52.992h-1.095l-0.435-1.133h-1.992l-0.412,1.133h-1.066l1.94-4.984h1.063L23.527,52.992z
		 M21.674,51.021l-0.687-1.85l-0.673,1.85H21.674z"/>
	<path fill="#FFFFFF" d="M26.379,51.159V50.32h2.17v1.985c-0.211,0.204-0.517,0.384-0.917,0.539c-0.4,0.156-0.805,0.232-1.215,0.232
		c-0.521,0-0.976-0.108-1.363-0.327s-0.679-0.531-0.874-0.938c-0.195-0.406-0.292-0.85-0.292-1.327c0-0.52,0.107-0.98,0.325-1.384
		c0.218-0.403,0.536-0.712,0.956-0.928c0.32-0.166,0.717-0.248,1.194-0.248c0.618,0,1.102,0.13,1.449,0.39
		c0.349,0.258,0.572,0.617,0.672,1.076l-1,0.187c-0.07-0.245-0.202-0.438-0.396-0.579c-0.193-0.143-0.436-0.213-0.725-0.213
		c-0.44,0-0.79,0.14-1.049,0.418c-0.259,0.279-0.389,0.693-0.389,1.241c0,0.592,0.131,1.035,0.394,1.331
		c0.263,0.296,0.608,0.444,1.034,0.444c0.21,0,0.421-0.043,0.634-0.125s0.394-0.183,0.545-0.302v-0.632H26.379z"/>
	<path fill="#FFFFFF" d="M29.476,52.992v-4.984h3.695v0.843h-2.689v1.105h2.502v0.84h-2.502v1.356h2.784v0.84H29.476z"/>
	<path fill="#FFFFFF" d="M36.055,52.992v-4.984h1.614c0.612,0,1.011,0.025,1.196,0.075c0.286,0.076,0.525,0.237,0.717,0.488
		c0.193,0.25,0.29,0.574,0.29,0.971c0,0.306-0.056,0.563-0.167,0.772c-0.111,0.208-0.252,0.372-0.424,0.49
		c-0.171,0.12-0.344,0.198-0.521,0.236c-0.24,0.049-0.588,0.072-1.044,0.072h-0.656v1.88H36.055z M37.061,48.851v1.415h0.55
		c0.397,0,0.662-0.026,0.796-0.078c0.134-0.052,0.239-0.134,0.314-0.245c0.076-0.111,0.115-0.24,0.115-0.388
		c0-0.182-0.054-0.331-0.161-0.448c-0.107-0.119-0.241-0.192-0.405-0.222c-0.119-0.023-0.361-0.034-0.724-0.034H37.061z"/>
	<path fill="#FFFFFF" d="M40.725,52.992v-4.943h1.006v4.104h2.502v0.84H40.725z"/>
	<path fill="#FFFFFF" d="M49.444,52.992H48.35l-0.434-1.133h-1.992l-0.412,1.133h-1.066l1.94-4.984h1.064L49.444,52.992z
		 M47.592,51.021l-0.686-1.85l-0.673,1.85H47.592z"/>
	<path fill="#FFFFFF" d="M53.168,51.159l0.975,0.31c-0.148,0.545-0.397,0.948-0.746,1.213c-0.347,0.263-0.788,0.395-1.323,0.395
		c-0.662,0-1.206-0.225-1.632-0.678c-0.427-0.452-0.64-1.069-0.64-1.854c0-0.829,0.214-1.474,0.643-1.932
		c0.428-0.458,0.991-0.688,1.689-0.688c0.61,0,1.104,0.18,1.485,0.54c0.227,0.213,0.397,0.52,0.51,0.918l-0.995,0.238
		c-0.059-0.258-0.183-0.463-0.369-0.612s-0.415-0.224-0.681-0.224c-0.371,0-0.671,0.133-0.9,0.397
		c-0.23,0.266-0.346,0.695-0.346,1.289c0,0.63,0.114,1.079,0.341,1.346s0.521,0.402,0.884,0.402c0.268,0,0.497-0.086,0.689-0.257
		C52.945,51.791,53.083,51.524,53.168,51.159z"/>
	<path fill="#FFFFFF" d="M55.007,52.992v-4.984h3.695v0.843h-2.689v1.105h2.502v0.84h-2.502v1.356h2.784v0.84H55.007z"/>
	<path fill="#FFFFFF" d="M59.654,52.992v-4.984h1.006v1.961h1.972v-1.961h1.006v4.984h-1.006v-2.18H60.66v2.18H59.654z"/>
	<path fill="#FFFFFF" d="M64.474,50.531c0-0.509,0.077-0.934,0.229-1.278c0.112-0.254,0.268-0.482,0.464-0.684
		c0.196-0.202,0.41-0.352,0.645-0.449c0.311-0.131,0.668-0.197,1.074-0.197c0.733,0,1.321,0.228,1.763,0.683
		c0.44,0.456,0.661,1.089,0.661,1.901c0,0.803-0.219,1.434-0.656,1.888c-0.438,0.454-1.022,0.681-1.754,0.681
		c-0.741,0-1.331-0.225-1.769-0.678C64.693,51.946,64.474,51.323,64.474,50.531z M65.511,50.497c0,0.563,0.131,0.991,0.392,1.283
		c0.26,0.29,0.591,0.438,0.992,0.438s0.73-0.146,0.988-0.435c0.256-0.289,0.386-0.723,0.386-1.3c0-0.572-0.125-0.998-0.376-1.279
		c-0.25-0.28-0.583-0.421-0.998-0.421s-0.749,0.142-1.002,0.426C65.638,49.494,65.511,49.923,65.511,50.497z"/>
	<path fill="#FFFFFF" d="M70.121,52.992v-4.943h1.006v4.104h2.502v0.84H70.121z"/>
	<path fill="#FFFFFF" d="M74.343,48.008h1.84c0.414,0,0.73,0.032,0.947,0.096c0.293,0.085,0.544,0.239,0.752,0.459
		c0.209,0.219,0.368,0.488,0.477,0.807c0.109,0.318,0.162,0.711,0.162,1.179c0,0.41-0.05,0.763-0.152,1.061
		c-0.124,0.363-0.303,0.656-0.534,0.88c-0.174,0.17-0.41,0.303-0.707,0.397c-0.221,0.07-0.519,0.106-0.891,0.106h-1.894V48.008z
		 M75.349,48.851v3.302h0.752c0.281,0,0.483-0.016,0.608-0.047c0.164-0.042,0.299-0.111,0.407-0.208
		c0.106-0.098,0.194-0.258,0.263-0.481c0.067-0.224,0.103-0.527,0.103-0.913c0-0.384-0.035-0.68-0.103-0.887
		c-0.068-0.207-0.163-0.367-0.285-0.482c-0.123-0.115-0.277-0.194-0.467-0.234c-0.14-0.032-0.415-0.049-0.825-0.049H75.349z"/>
	<path fill="#FFFFFF" d="M79.374,52.992v-4.984h3.695v0.843H80.38v1.105h2.503v0.84H80.38v1.356h2.785v0.84H79.374z"/>
	<path fill="#FFFFFF" d="M84.021,52.992v-4.984h2.117c0.533,0,0.92,0.045,1.162,0.135c0.241,0.09,0.434,0.249,0.579,0.478
		c0.146,0.229,0.218,0.49,0.218,0.785c0,0.374-0.109,0.683-0.33,0.927c-0.22,0.243-0.548,0.396-0.985,0.461
		c0.218,0.126,0.396,0.266,0.539,0.417c0.142,0.153,0.332,0.422,0.572,0.81l0.608,0.973h-1.203l-0.728-1.085
		c-0.259-0.388-0.436-0.631-0.53-0.731c-0.095-0.102-0.195-0.171-0.304-0.209c-0.105-0.037-0.274-0.056-0.506-0.056h-0.204v2.081
		H84.021z M85.027,50.116h0.745c0.483,0,0.783-0.02,0.905-0.061c0.118-0.041,0.213-0.111,0.28-0.211
		c0.068-0.099,0.103-0.224,0.103-0.373c0-0.168-0.045-0.303-0.134-0.406c-0.09-0.104-0.216-0.169-0.38-0.195
		c-0.081-0.012-0.326-0.018-0.734-0.018h-0.785V50.116z"/>
</g>
</svg>
